# xmcd CD database file generated by Grip 3.2.0
# 
# Track frame offsets:
#       182
#       16285
#       34312
#       58575
#       81680
#       91907
#       109100
#       134720
#       148802
#       165712
#       176782
# 
# Disc length: 2537 seconds
# 
# Revision: 2
# Processed by: cddbd v1.5.1PL2 Copyright (c) Steve Scherf et al.
# Submitted via: Grip 3.2.0
# 
DISCID=a109e70b
DTITLE=Sonny Boy Williamson and The Yardbirds - Live In London!
DYEAR=1963
DGENRE=Blues
TTITLE0=Bye, Bye Bird
TTITLE1=Mister Downchild
TTITLE2=The River Rhine
TTITLE3=23 Hours Too Long
TTITLE4=A Lost Care
TTITLE5=Pontiac Blues
TTITLE6=Take It Easy Baby
TTITLE7=Out on the Water Coast
TTITLE8=I Don't Care No More
TTITLE9=Honey in Your Hips
TTITLE10=Western Arizona
EXTD=
EXTT0=
EXTT1=
EXTT2=
EXTT3=
EXTT4=
EXTT5=
EXTT6=
EXTT7=
EXTT8=
EXTT9=
EXTT10=
PLAYORDER=
